<svg xmlns="http://www.w3.org/2000/svg" stroke="#fff" width="42.667" height="42.667" version="1.0" viewBox="0 0 32 32">
  <path fill="#fff" d="M14.5 3.9C6.7 7.4 1.7 15.7 2.2 24.3l.3 5.2 4.9.3c6.8.4 12.8-2.1 17.1-7.1 4.2-4.9 5.8-9.5 5.3-15.7l-.3-4.5-5.5-.3c-3.7-.1-6.8.4-9.5 1.7zm10.4 3.5c2.6 2.6 3.2 4 2.8 5.8-1.5 5.9-8.6 13-14.5 14.5-1.8.4-3.2-.2-5.8-2.8-3.9-3.8-4.1-4.7-1.5-9.7C8.1 11 11.1 8 15.5 5.7c4.4-2.3 5.7-2.1 9.4 1.7zM28 5.6c0 1.4-.3 1.4-1.5.4-.8-.7-1.5-1.4-1.5-1.6 0-.2.7-.4 1.5-.4s1.5.7 1.5 1.6zM6 26.5c1 1.2 1 1.5-.4 1.5-.9 0-1.6-.7-1.6-1.5s.2-1.5.4-1.5.9.7 1.6 1.5z"/>
  <path fill="#fff" d="M16.5 12c.6 1.9.4 2.1-1.5 1.5-1.9-.6-2.1-.4-1.5 1.5.6 1.9.4 2.1-1.5 1.5-1.9-.6-2.1-.4-1.5 1.7.9 2.8.5 2.4 3.3 3.3 2.1.6 2.3.4 1.7-1.5-.6-1.9-.4-2.1 1.5-1.5 1.9.6 2.1.4 1.5-1.5-.6-1.9-.4-2.1 1.5-1.5 1.9.6 2.1.4 1.5-1.7-.4-1.2-.8-2.4-.9-2.4 0-.1-1.2-.5-2.4-.9-2.1-.6-2.3-.4-1.7 1.5z"/>
</svg>