<svg fill="none" viewBox="0 0 96 96" class="svg-icon" style="width: 18px; height: 18px;" xmlns="http://www.w3.org/2000/svg">
  <title></title>
  <path fill="#6FDDE7" d="M45.237 83.04 23.797 93.4c-3.76 1.8-8-1.28-7.44-5.4l3.28-24.12c.2-1.56-.32-3.16-1.4-4.32L1.437 42c-2.88-3-1.24-8 2.84-8.72l23.96-4.32a5.28 5.28 0 0 0 3.68-2.68l11.52-21.44c1.96-3.64 7.2-3.64 9.16 0l11.52 21.44c.76 1.4 2.12 2.4 3.68 2.68l23.96 4.32c4.08.72 5.72 5.72 2.84 8.72l-16.84 17.56a5.33 5.33 0 0 0-1.4 4.32L79.637 88c.56 4.12-3.68 7.2-7.44 5.4l-21.44-10.36c-1.72-.84-3.76-.84-5.52 0"></path>
  <path fill="#0F212E" d="M23.997 72V36h10.88v36zm29.4 0-13.28-36h12.36l7.76 24.24L67.997 36h12.36l-13.28 36h-13.72z"></path>
</svg>